# AST/ASF file generated using VICON BodyLanguage
# -----------------------------------------------
:version 1.10
:name VICON
:units
  mass 1.0
  length 0.45
  angle deg
:documentation
   .ast/.asf automatically generated from VICON data using
   VICON BodyBuilder and BodyLanguage model FoxedUp or BRILLIANT.MOD
:root
   order TX TY TZ RX RY RZ
   axis XYZ
   position 0 0 0  
   orientation 0 0 0 
:bonedata
  begin
     id 1 
     name lhipjoint
     direction 0.627457 -0.725269 0.283342 
     length 2.53237 
     axis 0 0 0  XYZ
  end
  begin
     id 2 
     name lfemur
     direction 0.34202 -0.939693 0  
     length 7.32496  
     axis 0 0 20  XYZ
    dof rx ry rz
    limits (-160.0 20.0)
           (-70.0 70.0)
           (-60.0 70.0)
  end
  begin
     id 3 
     name ltibia
     direction 0.34202 -0.939693 0   
     length 7.69674   
     axis 0 0 20   XYZ
    dof rx
    limits (-10.0 170.0)
  end
  begin
     id 4 
     name lfoot
     direction 0.127289 -0.349722 0.928166   
     length 1.8612   
     axis -90 7.62852e-016 20   XYZ
    dof rx rz
    limits (-45.0 90.0)
           (-70.0 20.0)
  end
  begin
     id 5 
     name ltoes
     direction 1.53561e-011 -4.21864e-011 1   
     length 0.925608   
     axis -90 7.62852e-016 20   XYZ
    dof rx
    limits (-90.0 20.0)
  end
  begin
     id 6 
     name rhipjoint
     direction -0.609094 -0.738725 0.288599   
     length 2.48624  
     axis 0 0 0  XYZ 
  end
  begin
     id 7 
     name rfemur
     direction -0.34202 -0.939693 0   
     length 7.44259   
     axis 0 0 -20   XYZ
    dof rx ry rz
    limits (-160.0 20.0)
           (-70.0 70.0)
           (-70.0 60.0)
  end
  begin
     id 8 
     name rtibia
     direction -0.34202 -0.939693 0   
     length 7.7781   
     axis 0 0 -20   XYZ
    dof rx
    limits (-10.0 170.0)
 end
 begin
     id 9 
     name rfoot
     direction -0.107015 -0.294021 0.949789   
     length 2.14741  
     axis -90 -7.62852e-016 -20   XYZ
    dof rx rz
    limits (-45.0 90.0)
           (-20.0 70.0)
  end
  begin
     id 10 
     name rtoes
     direction -1.53497e-011 -4.21924e-011 1   
     length 1.0706   
     axis -90 -7.62852e-016 -20   XYZ
    dof rx
    limits (-90.0 20.0)
  end
  begin
     id 11 
     name lowerback
     direction -0.0142066 0.998112 -0.0597545   
     length 1.86627   
     axis 0 0 0   XYZ
    dof rx ry rz
    limits (-20.0 45.0)
           (-30.0 30.0)
           (-30.0 30.0)
  end
  begin
     id 12 
     name upperback
     direction 0.00547294 0.999744 0.0219437   
     length 1.86272   
     axis 0 0 0   XYZ
    dof rx ry rz
    limits (-20.0 45.0)
           (-30.0 30.0)
           (-30.0 30.0)
  end
  begin
     id 13 
     name thorax
     direction 0.0116162 0.998704 0.0495538   
     length 1.8703   
     axis 0 0 0   XYZ
    dof rx ry rz
    limits (-20.0 45.0)
           (-30.0 30.0)
           (-30.0 30.0)
  end
  begin
     id 14 
     name lowerneck
     direction -0.0106574 0.998739 0.0490586   
     length 1.8074   
     axis 0 0 0   XYZ
    dof rx ry rz
    limits (-20.0 45.0)
           (-30.0 30.0)
           (-30.0 30.0)
  end
  begin
     id 15 
     name upperneck
     direction 0.030527 0.976587 -0.212944   
     length 1.80681   
     axis 0 0 0   XYZ
    dof rx ry rz
    limits (-20.0 45.0)
           (-30.0 30.0)
           (-30.0 30.0)
  end
  begin
     id 16
     name head
     direction 0.00869225 0.997035 -0.0764531  
     length 1.8313  
     axis 0 0 0   XYZ
    dof rx ry rz
    limits (-20.0 45.0)
           (-30.0 30.0)
           (-30.0 30.0)
  end
  begin
     id 17 
     name lclavicle
     direction 0.915958 0.399447 0.0382386  
     length 3.78965  
     axis 0 0 0   XYZ
    dof ry rz
    limits (-20.0 10.0)
           (0.0 20.0)
  end
  begin
     id 18 
     name lhumerus
     direction 1 -4.48967e-011 3.19303e-027   
     length 4.78095   
     axis -180 -30 -90   XYZ
    dof rx ry rz
    limits (-60.0 90.0)
           (-90.0 90.0)
           (-90.0 90.0)
  end
  begin
     id 19
     name lradius
     direction 1 -4.48967e-011 -3.77974e-027   
     length 3.58615   
     axis -180 -30 -90   XYZ
    dof rx
    limits (-10.0 170.0)
  end
  begin
     id 20
     name lwrist
     direction 1 -4.48927e-011 1.2807e-027   
     length 1.79307   
     axis 1.91374e-015 90 90   XYZ
    dof ry
    limits (-180.0 0.0)
 end
  begin
     id 21 
     name lhand
     direction 1 -4.49036e-011 2.5614e-027   
     length 0.659812   
     axis -1.63439e-015 90 90   XYZ
    dof rx rz
    limits (-90.0 90.0)
           (-45.0 45.0)
  end
  begin
     id 22 
     name lfingers
     direction 1 -4.49052e-011 5.1228e-027   
     length 0.531957   
     axis -3.26879e-015 90 90   XYZ
    dof rx
    limits (0.0 90.0)
  end
  begin
     id 23
     name lthumb
     direction 0.707107 -6.35012e-011 0.707107   
     length 0.763787   
     axis -90 45 2.85299e-015   XYZ
    dof rx rz
    limits (-45.0 45.0)
           (-45.0 45.0)
  end
  begin
     id 24 
     name rclavicle
     direction -0.895351 0.435135 0.0948887   
     length 3.70497  
     axis 0 0 0   XYZ 
    dof ry rz
    limits (-10.0 20.0)
           (-20.0 0.0)
  end
  begin
     id 25 
     name rhumerus
     direction -1 -4.48971e-011 2.38946e-027  
     length 4.48913   
     axis -180 30 90   XYZ
    dof rx ry rz
    limits (-90.0 60.0)
           (-90.0 90.0)
           (-90.0 90.0)
  end
  begin
     id 26 
     name rradius
     direction -1 -4.4895e-011 4.38668e-027   
     length 3.7051   
     axis -180 30 90   XYZ
    dof rx
    limits (-10.0 170.0)
  end
  begin
     id 27 
     name rwrist
     direction -1 -4.49007e-011 1.2807e-027   
     length 1.85255   
     axis 1.91374e-015 -90 -90   XYZ
    dof ry
    limits (-180.0 0.0)
  end
  begin
     id 28
     name rhand
     direction -1 -4.48851e-011 2.5614e-027   
     length 0.449136   
     axis -1.63439e-015 -90 -90   XYZ
    dof rx rz
    limits (-90.0 90.0)
           (-45.0 45.0)
  end
  begin
     id 29
     name rfingers
     direction -1 -4.49128e-011 5.1228e-027   
     length 0.362105   
     axis -3.26879e-015 -90 -90   XYZ
    dof rx
    limits (0.0 90.0)
  end
  begin
     id 30
     name rthumb
     direction -0.707107 -6.34851e-011 0.707107   
     length 0.519912   
     axis -90 -45 -2.85299e-015   XYZ
    dof rx rz
    limits (-45.0 45.0)
           (-45.0 45.0)
  end
:hierarchy
  begin
    root lhipjoint rhipjoint lowerback
    lhipjoint lfemur
    lfemur ltibia
    ltibia lfoot
    lfoot ltoes
    rhipjoint rfemur
    rfemur rtibia
    rtibia rfoot
    rfoot rtoes
    lowerback upperback
    upperback thorax
    thorax lowerneck lclavicle rclavicle
    lowerneck upperneck
    upperneck head
    lclavicle lhumerus
    lhumerus lradius
    lradius lwrist
    lwrist lhand lthumb
    lhand lfingers
    rclavicle rhumerus
    rhumerus rradius
    rradius rwrist
    rwrist rhand rthumb
    rhand rfingers
  end

#!OML:ASF I:\Actors\actors\Patient Classification 2\Patient 1\Session 1\actor1.ASF
:FULLY-SPECIFIED
:DEGREES
1
root -0.736485 16.8904 2.12458 -2.45387 -1.62966 0.228898
lowerback 7.84064 0.459213 -1.89191
upperback -0.994752 0.442739 0.26274
thorax -5.45565 0.280375 1.28254
lowerneck -13.6841 -2.81792 -2.65807
upperneck 25.7767 -4.348 3.61896
head 10.6755 -1.8257 1.17345
rclavicle 7.56857e-015 2.22142e-014
rhumerus 37.6615 13.5508 -64.8248
rradius 43.6333
rwrist 19.3152
rhand 28.0406 -40.8349
rfingers 7.12502
rthumb 51.937 -60.9779
lclavicle 7.56857e-015 2.22142e-014
lhumerus 37.2952 -13.9254 67.6544
lradius 46.3342
lwrist -10.1693
lhand 32.8154 -18.0292
lfingers 7.12502
lthumb 56.2187 -0.81041
rfemur -17.9712 -5.63525 11.262
rtibia 57.6408
rfoot -32.7144 3.32761
rtoes -23.5526
lfemur -21.9299 7.06912 -12.4725
ltibia 60.4859
lfoot -31.8859 -0.520227
ltoes -56.4523
2
root -0.737198 16.8882 2.12207 -2.45125 -1.63696 0.261376
lowerback 7.87239 0.463166 -1.93006
upperback -0.998459 0.442866 0.249191
thorax -5.47779 0.281617 1.28971
lowerneck -13.6773 -2.80733 -2.6856
upperneck 25.7814 -4.3436 3.68172
head 10.678 -1.81893 1.20134
rclavicle 2.90587e-015 1.24613e-014
rhumerus 37.6254 13.5558 -64.828
rradius 43.7262
rwrist 19.2498
rhand 28.0919 -40.8809
rfingers 7.12502
rthumb 51.9836 -60.9963
lclavicle 2.90587e-015 1.24613e-014
lhumerus 37.3006 -13.9137 67.6255
lradius 46.3286
lwrist -10.098
lhand 32.8463 -18.0346
lfingers 7.12502
lthumb 56.246 -0.837258
rfemur -18.0057 -5.61491 11.2303
rtibia 57.686
rfoot -32.7392 3.29822
rtoes -23.6514
lfemur -21.9509 7.07674 -12.506
ltibia 60.5096
lfoot -31.893 -0.485827
ltoes -56.5426
3
root -0.738141 16.8867 2.12018 -2.44086 -1.63262 0.255702
lowerback 7.88327 0.463176 -1.92728
upperback -0.997759 0.442972 0.250012
thorax -5.48322 0.281641 1.28894
lowerneck -13.6527 -2.79594 -2.69898
upperneck 25.7688 -4.33613 3.72622
head 10.6696 -1.81194 1.22083
rclavicle -6.19804e-015 -6.64686e-015
rhumerus 37.6186 13.5436 -64.835
rradius 43.7716
rwrist 19.1906
rhand 28.034 -40.8104
rfingers 7.12502
rthumb 51.931 -60.9569
lclavicle -6.19804e-015 -6.64686e-015
lhumerus 37.2946 -13.9132 67.5963
lradius 46.3534
lwrist -10.0466
lhand 32.8687 -18.0201
lfingers 7.12502
lthumb 56.2658 -0.838436
rfemur -18.0292 -5.62781 11.241
rtibia 57.7047
rfoot -32.7143 3.31901
rtoes -23.5633
lfemur -21.9838 7.08334 -12.4921
ltibia 60.5443
lfoot -31.917 -0.524783
ltoes -56.5253
4
root -0.739307 16.8856 2.11876 -2.45046 -1.63299 0.220914
lowerback 7.91166 0.469613 -1.89956
upperback -0.989054 0.45465 0.266715
thorax -5.4905 0.286818 1.28917
lowerneck -13.6463 -2.79472 -2.70661
upperneck 25.7789 -4.33629 3.7385
head 10.6726 -1.81123 1.22665
rclavicle -5.57781e-015 -4.72114e-015
rhumerus 37.6049 13.5093 -64.8514
rradius 43.8025
rwrist 19.1129
rhand 27.8689 -40.6856
rfingers 7.12502
rthumb 51.7812 -60.9203
lclavicle -5.57781e-015 -4.72114e-015
lhumerus 37.2888 -13.9342 67.5527
lradius 46.4012
lwrist -10.0048
lhand 32.8012 -18.0112
lfingers 7.12502
lthumb 56.2062 -0.782529
rfemur -18.0309 -5.63221 11.2846
rtibia 57.7261
rfoot -32.7041 3.36661
rtoes -23.3781
lfemur -21.9943 7.09556 -12.4461
ltibia 60.578
lfoot -31.9415 -0.55824
ltoes -56.4817
5
root -0.740644 16.8846 2.11632 -2.47541 -1.62057 0.189029
lowerback 7.97459 0.463151 -1.88094
upperback -0.990772 0.447731 0.288245
thorax -5.52776 0.28353 1.30172
lowerneck -13.6035 -2.79025 -2.70748
upperneck 25.7798 -4.32681 3.72495
head 10.6638 -1.80918 1.22373
rclavicle 1.00848e-015 -7.96381e-015
rhumerus 37.5638 13.509 -64.8927
rradius 43.8665
rwrist 19.0849
rhand 27.8339 -40.673
rfingers 7.12502
rthumb 51.7494 -60.9263
lclavicle 1.00848e-015 -7.96381e-015
lhumerus 37.2562 -13.9375 67.5196
lradius 46.4202
lwrist -9.94971
lhand 32.7397 -18.0009
lfingers 7.12502
lthumb 56.1517 -0.729432
rfemur -18.0233 -5.63457 11.3251
rtibia 57.7487
rfoot -32.7459 3.32361
rtoes -23.5701
lfemur -22.0024 7.06916 -12.4037
ltibia 60.6107
lfoot -31.9447 -0.561605
ltoes -56.491
